<?xml version="1.0" standalone="no"?>
<!DOCTYPE svg PUBLIC "-//W3C//DTD SVG 20010904//EN"
 "http://www.w3.org/TR/2001/REC-SVG-20010904/DTD/svg10.dtd">
<svg version="1.0" xmlns="http://www.w3.org/2000/svg"
 width="260.000000pt" height="260.000000pt" viewBox="0 0 260.000000 260.000000"
 preserveAspectRatio="xMidYMid meet">
<metadata>
Created by potrace 1.14, written by Peter Selinger 2001-2017
</metadata>
<g transform="translate(0.000000,260.000000) scale(0.100000,-0.100000)"
fill="#000000" stroke="none">
<path d="M0 1300 l0 -1300 1300 0 1300 0 0 1300 0 1300 -1300 0 -1300 0 0
-1300z m1292 693 c8 -10 59 -93 112 -186 54 -92 102 -170 107 -172 4 -3 40 50
80 117 39 68 89 153 111 191 21 37 43 67 47 67 12 0 291 -478 291 -498 0 -26
-126 -247 -141 -247 -7 0 -42 48 -78 108 -36 59 -69 107 -72 107 -7 0 -92
-137 -327 -525 -80 -133 -136 -223 -189 -308 l-23 -37 -135 0 c-74 0 -135 4
-135 8 0 4 26 53 58 108 32 54 127 217 211 362 l152 264 -38 61 c-21 33 -42
60 -48 60 -10 0 -67 -91 -242 -383 -47 -80 -133 -220 -191 -312 l-104 -168
-134 0 c-74 0 -134 3 -134 8 0 7 44 86 291 513 65 114 119 211 119 217 0 14
-53 101 -62 102 -6 0 -24 -28 -153 -240 -100 -164 -199 -326 -284 -463 l-85
-137 -126 0 c-70 0 -129 3 -133 6 -3 3 21 49 52 102 32 54 117 201 190 327 73
127 166 286 206 355 40 69 129 222 198 340 69 118 130 215 136 215 6 0 55 -76
110 -168 55 -92 102 -169 105 -170 7 -2 63 93 168 281 34 61 65 112 69 112 3
0 13 -8 21 -17z m829 -615 c6 -13 56 -97 109 -188 221 -374 330 -562 330 -571
0 -5 -227 -9 -555 -9 -413 0 -555 3 -555 12 0 6 26 59 58 117 32 58 87 159
123 224 35 64 69 117 75 117 6 0 32 -36 58 -80 25 -44 50 -80 54 -80 4 0 64
102 132 228 67 125 127 233 133 240 14 18 25 15 38 -10z"/>
</g>
</svg>
